{
	"asset":{
		"generator":"Khronos glTF Blender I/O v4.1.62",
		"version":"2.0"
	},
	"scene":0,
	"scenes":[
		{
			"name":"Scene",
			"nodes":[
				0,
				1,
				2,
				3,
				4
			]
		}
	],
	"nodes":[
		{
			"mesh":0,
			"name":"Base"
		},
		{
			"mesh":1,
			"name":"Sostre-col",
			"rotation":[
				1,
				0,
				0,
				2.6618774427333847e-05
			],
			"translation":[
				0,
				2.979095458984375,
				0
			]
		},
		{
			"mesh":2,
			"name":"Bandera",
			"scale":[
				0.483600914478302,
				0.7432333827018738,
				0.015434695407748222
			],
			"translation":[
				0.506379246711731,
				5.529430389404297,
				0
			]
		},
		{
			"mesh":3,
			"name":"Pal1",
			"translation":[
				0,
				4.948718547821045,
				0
			]
		},
		{
			"mesh":4,
			"name":"Pal2",
			"translation":[
				0,
				6.006975173950195,
				0
			]
		}
	],
	"materials":[
		{
			"doubleSided":true,
			"name":"Metall",
			"pbrMetallicRoughness":{
				"baseColorFactor":[
					0.10527889430522919,
					0.10527889430522919,
					0.10527889430522919,
					1
				],
				"metallicFactor":0.6000000238418579,
				"roughnessFactor":0.30000001192092896
			}
		},
		{
			"doubleSided":true,
			"name":"matBandera",
			"pbrMetallicRoughness":{
				"baseColorFactor":[
					0.8000626564025879,
					0.037145648151636124,
					0.0644148662686348,
					1
				],
				"metallicFactor":0,
				"roughnessFactor":0.5
			}
		},
		{
			"doubleSided":true,
			"name":"matBola",
			"pbrMetallicRoughness":{
				"baseColorFactor":[
					0.8002511262893677,
					0.3897075951099396,
					0.029766229912638664,
					1
				],
				"metallicFactor":0.6850393414497375,
				"roughnessFactor":0.28740155696868896
			}
		}
	],
	"meshes":[
		{
			"name":"Cylinder",
			"primitives":[
				{
					"attributes":{
						"POSITION":0,
						"NORMAL":1,
						"TEXCOORD_0":2
					},
					"indices":3,
					"material":0
				}
			]
		},
		{
			"name":"Cylinder.001",
			"primitives":[
				{
					"attributes":{
						"POSITION":4,
						"NORMAL":5,
						"TEXCOORD_0":6
					},
					"indices":7,
					"material":0
				}
			]
		},
		{
			"name":"Cube.001",
			"primitives":[
				{
					"attributes":{
						"POSITION":8,
						"NORMAL":9,
						"TEXCOORD_0":10,
						"TANGENT":11
					},
					"indices":12,
					"material":1
				}
			]
		},
		{
			"name":"Cylinder.003",
			"primitives":[
				{
					"attributes":{
						"POSITION":13,
						"NORMAL":14,
						"TEXCOORD_0":15
					},
					"indices":16,
					"material":0
				}
			]
		},
		{
			"name":"Sphere.001",
			"primitives":[
				{
					"attributes":{
						"POSITION":17,
						"NORMAL":18,
						"TEXCOORD_0":19,
						"TANGENT":20
					},
					"indices":21,
					"material":2
				}
			]
		}
	],
	"accessors":[
		{
			"bufferView":0,
			"componentType":5126,
			"count":643,
			"max":[
				1.0000005960464478,
				0.14746041595935822,
				0.9999996423721313
			],
			"min":[
				-0.9999993443489075,
				0,
				-1.000000238418579
			],
			"type":"VEC3"
		},
		{
			"bufferView":1,
			"componentType":5126,
			"count":643,
			"type":"VEC3"
		},
		{
			"bufferView":2,
			"componentType":5126,
			"count":643,
			"type":"VEC2"
		},
		{
			"bufferView":3,
			"componentType":5123,
			"count":3060,
			"type":"SCALAR"
		},
		{
			"bufferView":4,
			"componentType":5126,
			"count":859,
			"max":[
				1.0000005960464478,
				0.14746041595935822,
				0.9999996423721313
			],
			"min":[
				-0.9999993443489075,
				-0.9876506328582764,
				-1.000000238418579
			],
			"type":"VEC3"
		},
		{
			"bufferView":5,
			"componentType":5126,
			"count":859,
			"type":"VEC3"
		},
		{
			"bufferView":6,
			"componentType":5126,
			"count":859,
			"type":"VEC2"
		},
		{
			"bufferView":7,
			"componentType":5123,
			"count":4212,
			"type":"SCALAR"
		},
		{
			"bufferView":8,
			"componentType":5126,
			"count":24,
			"max":[
				0.9999999403953552,
				0.4641264081001282,
				1
			],
			"min":[
				-1,
				-0.4641264081001282,
				-1
			],
			"type":"VEC3"
		},
		{
			"bufferView":9,
			"componentType":5126,
			"count":24,
			"type":"VEC3"
		},
		{
			"bufferView":10,
			"componentType":5126,
			"count":24,
			"type":"VEC2"
		},
		{
			"bufferView":11,
			"componentType":5126,
			"count":24,
			"type":"VEC4"
		},
		{
			"bufferView":12,
			"componentType":5123,
			"count":36,
			"type":"SCALAR"
		},
		{
			"bufferView":13,
			"componentType":5126,
			"count":50,
			"max":[
				0.04895209148526192,
				0.9977710843086243,
				0.04895209148526192
			],
			"min":[
				-0.04895209148526192,
				-0.9977710843086243,
				-0.04895209148526192
			],
			"type":"VEC3"
		},
		{
			"bufferView":14,
			"componentType":5126,
			"count":50,
			"type":"VEC3"
		},
		{
			"bufferView":15,
			"componentType":5126,
			"count":50,
			"type":"VEC2"
		},
		{
			"bufferView":16,
			"componentType":5123,
			"count":132,
			"type":"SCALAR"
		},
		{
			"bufferView":17,
			"componentType":5126,
			"count":115,
			"max":[
				0.08928380161523819,
				0.0892813429236412,
				0.08928373456001282
			],
			"min":[
				-0.08928380161523819,
				-0.08928617835044861,
				-0.089283786714077
			],
			"type":"VEC3"
		},
		{
			"bufferView":18,
			"componentType":5126,
			"count":115,
			"type":"VEC3"
		},
		{
			"bufferView":19,
			"componentType":5126,
			"count":115,
			"type":"VEC2"
		},
		{
			"bufferView":20,
			"componentType":5126,
			"count":115,
			"type":"VEC4"
		},
		{
			"bufferView":21,
			"componentType":5123,
			"count":504,
			"type":"SCALAR"
		}
	],
	"bufferViews":[
		{
			"buffer":0,
			"byteLength":7716,
			"byteOffset":0,
			"target":34962
		},
		{
			"buffer":0,
			"byteLength":7716,
			"byteOffset":7716,
			"target":34962
		},
		{
			"buffer":0,
			"byteLength":5144,
			"byteOffset":15432,
			"target":34962
		},
		{
			"buffer":0,
			"byteLength":6120,
			"byteOffset":20576,
			"target":34963
		},
		{
			"buffer":0,
			"byteLength":10308,
			"byteOffset":26696,
			"target":34962
		},
		{
			"buffer":0,
			"byteLength":10308,
			"byteOffset":37004,
			"target":34962
		},
		{
			"buffer":0,
			"byteLength":6872,
			"byteOffset":47312,
			"target":34962
		},
		{
			"buffer":0,
			"byteLength":8424,
			"byteOffset":54184,
			"target":34963
		},
		{
			"buffer":0,
			"byteLength":288,
			"byteOffset":62608,
			"target":34962
		},
		{
			"buffer":0,
			"byteLength":288,
			"byteOffset":62896,
			"target":34962
		},
		{
			"buffer":0,
			"byteLength":192,
			"byteOffset":63184,
			"target":34962
		},
		{
			"buffer":0,
			"byteLength":384,
			"byteOffset":63376,
			"target":34962
		},
		{
			"buffer":0,
			"byteLength":72,
			"byteOffset":63760,
			"target":34963
		},
		{
			"buffer":0,
			"byteLength":600,
			"byteOffset":63832,
			"target":34962
		},
		{
			"buffer":0,
			"byteLength":600,
			"byteOffset":64432,
			"target":34962
		},
		{
			"buffer":0,
			"byteLength":400,
			"byteOffset":65032,
			"target":34962
		},
		{
			"buffer":0,
			"byteLength":264,
			"byteOffset":65432,
			"target":34963
		},
		{
			"buffer":0,
			"byteLength":1380,
			"byteOffset":65696,
			"target":34962
		},
		{
			"buffer":0,
			"byteLength":1380,
			"byteOffset":67076,
			"target":34962
		},
		{
			"buffer":0,
			"byteLength":920,
			"byteOffset":68456,
			"target":34962
		},
		{
			"buffer":0,
			"byteLength":1840,
			"byteOffset":69376,
			"target":34962
		},
		{
			"buffer":0,
			"byteLength":1008,
			"byteOffset":71216,
			"target":34963
		}
	],
	"buffers":[
		{
			"byteLength":72224,
			"uri":"FinalObjective-f64fda8e050f0a73fc6ba670ee025e0e.bin"
		}
	]
}
