{
	"asset":{
		"generator":"Khronos glTF Blender I/O v4.1.62",
		"version":"2.0"
	},
	"scene":0,
	"scenes":[
		{
			"name":"Scene",
			"nodes":[
				0
			]
		}
	],
	"nodes":[
		{
			"mesh":0,
			"name":"Base"
		}
	],
	"materials":[
		{
			"doubleSided":true,
			"name":"Metall",
			"pbrMetallicRoughness":{
				"baseColorFactor":[
					0.1978575885295868,
					0.32467979192733765,
					0.4612019658088684,
					1
				],
				"metallicFactor":0.6000000238418579,
				"roughnessFactor":0.30000001192092896
			}
		}
	],
	"meshes":[
		{
			"name":"Cylinder",
			"primitives":[
				{
					"attributes":{
						"POSITION":0,
						"NORMAL":1,
						"TEXCOORD_0":2
					},
					"indices":3,
					"material":0
				}
			]
		}
	],
	"accessors":[
		{
			"bufferView":0,
			"componentType":5126,
			"count":643,
			"max":[
				1.0000005960464478,
				0.14746041595935822,
				0.9999996423721313
			],
			"min":[
				-0.9999993443489075,
				0,
				-1.000000238418579
			],
			"type":"VEC3"
		},
		{
			"bufferView":1,
			"componentType":5126,
			"count":643,
			"type":"VEC3"
		},
		{
			"bufferView":2,
			"componentType":5126,
			"count":643,
			"type":"VEC2"
		},
		{
			"bufferView":3,
			"componentType":5123,
			"count":3060,
			"type":"SCALAR"
		}
	],
	"bufferViews":[
		{
			"buffer":0,
			"byteLength":7716,
			"byteOffset":0,
			"target":34962
		},
		{
			"buffer":0,
			"byteLength":7716,
			"byteOffset":7716,
			"target":34962
		},
		{
			"buffer":0,
			"byteLength":5144,
			"byteOffset":15432,
			"target":34962
		},
		{
			"buffer":0,
			"byteLength":6120,
			"byteOffset":20576,
			"target":34963
		}
	],
	"buffers":[
		{
			"byteLength":26696,
			"uri":"TPBase-9f94828a719a55611d85304a2349d18d.bin"
		}
	]
}
