<?xml version="1.0" encoding="UTF-8" standalone="no"?>
<!-- Created with Inkscape (http://www.inkscape.org/) -->

<svg
   width="147.36925mm"
   height="128.04047mm"
   viewBox="0 0 147.36925 128.04047"
   version="1.1"
   id="svg1"
   xml:space="preserve"
   xmlns:inkscape="http://www.inkscape.org/namespaces/inkscape"
   xmlns:sodipodi="http://sodipodi.sourceforge.net/DTD/sodipodi-0.dtd"
   xmlns="http://www.w3.org/2000/svg"
   xmlns:svg="http://www.w3.org/2000/svg"><sodipodi:namedview
     id="namedview1"
     pagecolor="#ffffff"
     bordercolor="#666666"
     borderopacity="1.0"
     inkscape:showpageshadow="2"
     inkscape:pageopacity="0.0"
     inkscape:pagecheckerboard="0"
     inkscape:deskcolor="#d1d1d1"
     inkscape:document-units="mm" /><defs
     id="defs1" /><g
     inkscape:label="Layer 1"
     inkscape:groupmode="layer"
     id="layer1"
     transform="translate(-26.827366,-84.8467)"><path
       style="fill:#f9f9f9"
       d="m 40.710336,212.62168 c -3.84664,-0.77154 -7.17107,-2.65532 -9.60782,-5.44425 -0.63538,-0.72721 -1.22296,-1.30019 -1.30573,-1.27328 -0.0828,0.0269 -0.098,-0.0361 -0.0338,-0.13991 0.0642,-0.10386 -0.1258,-0.56674 -0.4222,-1.02864 -1.26418,-1.97005 -2.01049,-4.29054 -2.33789,-7.26917 -0.33627,-3.05937 -0.15518,-17.01667 0.25381,-19.56118 0.36623,-2.27848 1.2746,-5.54911 2.17524,-7.83206 3.62278,-9.18297 11.9772,-17.39733 21.02498,-20.67249 3.03496,-1.09861 5.59545,-1.66492 9.56914,-2.11645 3.36095,-0.38189 20.57754,-0.37608 23.8554,0.008 4.44949,0.52144 8.299496,1.45621 11.646306,2.82767 10.887298,4.46142 18.667898,13.46968 21.538408,24.93687 0.87569,3.49823 1.08452,6.34315 1.09601,14.93075 0.0117,8.75608 -0.0593,9.57695 -1.0396,12.02581 -1.88535,4.70954 -7.39891,9.23324 -12.79026,10.49399 l -1.62426,0.37983 -30.420294,-0.0167 c -24.24128,-0.0133 -30.65534,-0.0639 -31.57746,-0.24882 z m 81.001514,-7.46963 c 0,-0.044 0.24585,-0.44437 0.54634,-0.8896 1.30405,-1.93224 1.90945,-4.36787 2.10423,-8.46565 0.35108,-7.38613 0.15739,-16.3607 -0.43506,-20.15902 -0.91662,-5.87663 -3.07373,-11.64107 -5.9305,-15.8481 -3.30859,-4.87239 -8.35975,-9.32742 -13.06792,-11.52565 -0.94371,-0.44061 -1.71941,-0.84585 -1.72378,-0.90053 -0.0185,-0.23195 3.61251,-2.14162 5.33282,-2.80468 4.36249,-1.68146 6.63899,-1.85419 23.32132,-1.76951 l 12.72881,0.0646 2.08347,0.4696 c 4.45819,1.00485 9.06951,2.96673 12.78164,5.43794 5.95702,3.96564 10.1304,9.43964 12.51479,16.41497 1.51358,4.42783 2.04594,8.16398 2.1942,15.39919 0.13099,6.39258 -0.11819,11.70171 -0.64338,13.70795 -0.88417,3.37759 -3.10886,6.60344 -5.74084,8.32434 -1.92477,1.2585 -3.36251,1.87101 -5.35888,2.28301 -1.54083,0.31799 -2.70743,0.33666 -21.16898,0.33887 -10.74605,0.001 -19.53828,-0.0337 -19.53828,-0.0778 z M 67.770186,139.53266 c -8.13422,-1.45305 -15.48974,-7.30251 -19.32278,-15.36638 -1.09719,-2.30824 -1.69496,-4.22949 -2.13529,-6.86283 -0.44065,-2.63527 -0.28764,-6.86859 0.33892,-9.3771 2.42304,-9.700867 10.39467,-17.795147 19.60593,-19.907577 2.0189,-0.46299 3.5996,-0.63214 5.94261,-0.63588 12.59201,-0.0202 23.634056,8.84564 26.398826,21.195937 0.35799,1.59914 0.41396,2.32105 0.40605,5.2373 -0.01,3.66537 -0.26304,5.33157 -1.24973,8.22721 -2.17736,6.38985 -7.22523,12.15086 -13.360526,15.24803 -2.10104,1.06064 -4.88273,1.98512 -7.01064,2.32996 -2.40107,0.38911 -7.18581,0.34498 -9.61337,-0.0887 z M 125.5394,136.8898 c -2.21561,-0.40891 -3.05105,-0.62865 -4.62866,-1.21747 -4.18187,-1.56083 -7.70119,-3.89065 -10.86837,-7.19496 -7.25072,-7.56466 -9.26573,-17.54547 -5.42192,-26.85598 1.08877,-2.637217 2.31871,-4.758737 4.02329,-6.939787 4.07205,-5.21027 9.40842,-8.41034 15.91652,-9.54468 2.20147,-0.38371 6.77127,-0.38749 9.07929,-0.008 1.87869,0.30931 4.84924,1.14842 6.44861,1.82159 0.57438,0.24175 1.1409,0.38413 1.25892,0.31639 0.11803,-0.0677 0.15599,-0.0584 0.0844,0.0208 -0.0716,0.0792 0.61679,0.55669 1.52982,1.06115 6.36371,3.51607 10.65408,9.08943 12.40949,16.120437 0.49091,1.96629 0.67097,6.92227 0.34594,9.52167 -0.49714,3.97575 -2.31908,8.64812 -4.65082,11.92703 -1.41096,1.9841 -4.58662,5.22364 -6.47776,6.60807 -2.6135,1.91323 -6.23529,3.52443 -9.61337,4.27661 -2.00026,0.44538 -7.23122,0.49341 -9.43534,0.0866 z"
       id="path1"
       inkscape:export-filename="creditsPressed.svg"
       inkscape:export-xdpi="96"
       inkscape:export-ydpi="96" /></g></svg>
