<?xml version="1.0" encoding="UTF-8" standalone="no"?>
<!-- Created with Inkscape (http://www.inkscape.org/) -->

<svg
   width="186.46358mm"
   height="178.23717mm"
   viewBox="0 0 186.46358 178.23717"
   version="1.1"
   id="svg1"
   inkscape:version="1.3.2 (091e20e, 2023-11-25, custom)"
   sodipodi:docname="star.svg"
   xmlns:inkscape="http://www.inkscape.org/namespaces/inkscape"
   xmlns:sodipodi="http://sodipodi.sourceforge.net/DTD/sodipodi-0.dtd"
   xmlns="http://www.w3.org/2000/svg"
   xmlns:svg="http://www.w3.org/2000/svg">
  <sodipodi:namedview
     id="namedview1"
     pagecolor="#ffffff"
     bordercolor="#666666"
     borderopacity="1.0"
     inkscape:showpageshadow="2"
     inkscape:pageopacity="0.0"
     inkscape:pagecheckerboard="0"
     inkscape:deskcolor="#d1d1d1"
     inkscape:document-units="mm"
     inkscape:zoom="0.37014941"
     inkscape:cx="-72.943517"
     inkscape:cy="-158.04429"
     inkscape:window-width="1920"
     inkscape:window-height="1027"
     inkscape:window-x="-8"
     inkscape:window-y="-8"
     inkscape:window-maximized="1"
     inkscape:current-layer="layer1" />
  <defs
     id="defs1" />
  <g
     inkscape:label="Layer 1"
     inkscape:groupmode="layer"
     id="layer1"
     transform="translate(208.85346,189.47228)">
    <path
       sodipodi:type="star"
       style="fill:#ffffff;stroke:#ffffff;stroke-width:9.34601;stroke-linejoin:round;stroke-opacity:1;paint-order:stroke fill markers"
       id="path2"
       inkscape:flatsided="false"
       sodipodi:sides="5"
       sodipodi:cx="-309.509"
       sodipodi:cy="-149.39349"
       sodipodi:r1="93.047813"
       sodipodi:r2="39.887371"
       sodipodi:arg1="0.52359878"
       sodipodi:arg2="1.1519173"
       inkscape:rounded="0.04"
       inkscape:randomized="0"
       d="m -228.92723,-102.86959 c -1.30287,2.25664 -61.97766,-11.14483 -64.35812,-10.08498 -2.38046,1.05985 -33.02058,55.117335 -35.56938,54.575572 -2.5488,-0.541764 -8.55279,-62.388192 -10.29637,-64.324632 -1.74358,-1.93644 -62.62362,-14.37225 -62.89599,-16.96372 -0.27237,-2.59146 56.69174,-27.41319 57.99461,-29.66983 1.30287,-2.25664 -5.68294,-63.99987 -3.30248,-65.05972 2.38046,-1.05985 43.59021,45.44591 46.13901,45.98767 2.5488,0.54176 59.11137,-25.18184 60.85495,-23.2454 1.74358,1.93644 -29.75151,55.50031 -29.47914,58.09177 0.27238,2.59147 42.21578,48.43664 40.91291,50.69327 z"
       inkscape:transform-center-x="-15.499823"
       inkscape:transform-center-y="-30.043319"
       transform="rotate(23.512351,-350.92372,345.83132)"
       inkscape:export-filename="star.png"
       inkscape:export-xdpi="96"
       inkscape:export-ydpi="96" />
  </g>
</svg>
